<?xml version="1.0" encoding="UTF-8" standalone="no"?>
<!DOCTYPE svg PUBLIC "-//W3C//DTD SVG 1.1//EN" "http://www.w3.org/Graphics/SVG/1.1/DTD/svg11.dtd">
<svg width="100%" height="100%" viewBox="0 0 3459 3402" version="1.1" xmlns="http://www.w3.org/2000/svg" xmlns:xlink="http://www.w3.org/1999/xlink" xml:space="preserve" xmlns:serif="http://www.serif.com/" style="fill-rule:evenodd;clip-rule:evenodd;stroke-linejoin:round;stroke-miterlimit:2;">
    <g transform="matrix(8.33333,0,0,8.33333,-108066,-3094.65)">
        <g id="Artboard7" transform="matrix(0.932131,0,0,1.0065,883.552,23.2018)">
            <rect x="12964.2" y="345.909" width="445.228" height="405.572" style="fill:none;"/>
            <g transform="matrix(0.257252,-0.10692,0.115451,0.238245,12170.4,188.281)">
                <path d="M3209.89,2937.41C3229.18,2937.36 3278.6,2923.96 3322.69,2929.4C3361.32,2933.98 3394.94,2955.83 3410.47,2974.74C3433.3,3002.86 3457.5,2993.65 3459.51,2989.13C3461.2,2985.86 3443.27,2982.21 3433.41,2975.61C3432.92,2975.45 3502.61,2954.25 3426.71,2955.45C3445.62,2942.26 3475.53,2914.91 3415.86,2942.37C3313.53,2869.9 3240.3,2908.21 3201.77,2916.65C3196.81,2917.69 3207.87,2937.63 3209.89,2937.41Z" style="fill:rgb(67,47,30);"/>
                <path d="M3149.08,3049.77C3162.43,3063.67 3206.35,3090.1 3232.88,3125.73C3256.32,3156.74 3263.78,3196.14 3260.84,3220.44C3256.37,3256.35 3279.75,3267.46 3284.43,3265.83C3287.97,3264.79 3278.17,3249.26 3276.15,3237.6C3275.88,3237.11 3339.41,3272.8 3286.01,3218.8C3308.68,3223.38 3349.06,3226.05 3287.97,3201.97C3269.5,3077.89 3191.2,3051.52 3158.45,3029.56C3154.25,3026.72 3147.5,3048.47 3149.08,3049.77Z" style="fill:rgb(67,47,30);"/>
                <path d="M2772,2477.41C2967.84,2460.19 3108.92,2476.48 3261.22,2596.85C3400.5,2706.92 3384.48,2979.97 3256.75,3126.44C3170,3225.94 3047.45,3303.16 2974.05,3332.42C2745.52,3423.47 2383.92,3361.02 2301.1,3119.79C2246.28,2960.19 2313.47,2781.9 2440.87,2644.04C2521.62,2556.63 2644.28,2488.69 2772,2477.41Z" style="fill:rgb(93,28,35);"/>
                <path d="M2106.08,2253.07C2406.65,2290.67 2693.97,2428.31 2656.1,2864.83C2651.42,2918.83 2336.13,2990.65 2328.02,2986.18C2026.9,2818.63 2059.81,2359.82 2106.08,2253.07Z" style="fill:rgb(242,157,138);"/>
                <path d="M3536.78,2295.24C3198.23,2207.95 2881.53,2373.6 2736.8,2858.19C2718.88,2918.18 3046.25,3003.18 3056.88,3002.26C3457,2967.66 3541.14,2429.45 3536.78,2295.24Z" style="fill:rgb(242,157,138);"/>
                <path d="M2221.6,2206.59C2511.7,2293.83 2772,2477.41 2661.88,2901.5C2648.2,2954.03 2325.35,2972.23 2318.15,2966.46C2049.19,2751 2158.17,2304.07 2221.6,2206.59Z" style="fill:rgb(248,49,72);"/>
                <path d="M3463.6,2231.71C3114.42,2213.34 2765.74,2438.17 2720.02,2941.83C2714.35,3004.17 3052.25,3023.02 3062.33,3019.53C3438.59,2890.39 3494.49,2362.38 3463.6,2231.71Z" style="fill:rgb(248,49,72);"/>
                <path d="M2692.07,2878.4C2554.15,2770.4 2423.7,2830.01 2356.13,2907.06C2321.1,2947.06 2295.32,3016.54 2304.37,3065.69C2365.83,3399.88 2923,3438.95 3074.92,3221.36C3149.35,3114.67 3176.6,2950.44 3066.09,2862.87C2941.74,2764.46 2782.36,2782.28 2692.07,2878.4Z" style="fill:rgb(251,208,171);"/>
                <path d="M2940.16,2940.68C3052.47,2964.12 3040.04,3096.42 2954.6,3130.37C2895.59,3154.07 2824.32,3126.61 2821.1,3053.21C2818.16,2977.41 2858.64,2923.41 2940.16,2940.68Z" style="fill:rgb(252,240,224);"/>
                <path d="M2906.43,2939.81C2986.32,2963.79 2977.32,3092.33 2915.91,3126.22C2894.88,3138.05 2876.41,3134.07 2858.26,3121.43C2840.12,3108.79 2821.97,3087.04 2821.26,3051.19C2819.68,2985.09 2862.46,2926.52 2906.43,2939.81Z" style="fill:rgb(55,36,89);"/>
                <path d="M2872.38,2968.42C2892.37,2969.13 2889.32,3007 2874.39,3015.72C2869.38,3018.61 2865.02,3017.52 2860.61,3014.57C2856.25,3011.14 2852.98,3005.69 2851.89,2996.43C2849.82,2980.41 2863,2968.04 2872.38,2968.42Z" style="fill:rgb(254,254,254);"/>
                <path d="M2511.49,2978.83C2615.78,2987.44 2619.54,3108.68 2545.92,3148.95C2495.03,3176.9 2427.35,3160.17 2416.29,3094.13C2405.17,3025.74 2435.69,2972.13 2511.49,2978.83Z" style="fill:rgb(252,240,224);"/>
                <path d="M2481.13,2981.71C2556.11,2994.63 2562.16,3112.11 2510.29,3149.66C2492.58,3162.62 2475.3,3161.32 2457.49,3151.78C2439.61,3142.24 2420.87,3124.59 2416.18,3092.22C2407.25,3032.45 2439.67,2974.63 2481.13,2981.71Z" style="fill:rgb(55,36,89);"/>
                <path d="M2453.34,3011.41C2471.22,3009.78 2472.8,3044.6 2460.43,3053.97C2456.18,3057.4 2452.14,3057.02 2447.73,3054.46C2443.32,3051.95 2439.88,3047.27 2437.87,3039.31C2433.95,3024.76 2444.79,3011.9 2453.34,3011.41Z" style="fill:rgb(254,254,254);"/>
                <path d="M2753.1,3113.75C2742.42,3099.31 2728.08,3132.33 2709.67,3132.49C2689.23,3132.54 2674.41,3100.94 2667,3111.46C2658.88,3122.79 2678.39,3147.75 2706.34,3150.47C2738.6,3153.36 2760.67,3123.88 2753.1,3113.75Z" style="fill:rgb(67,47,30);"/>
                <path d="M3020.92,3190.3C3011.76,3230.96 2947.19,3231.06 2928.23,3201.86C2921.58,3191.67 2922.94,3182.24 2928.5,3172.76C2934.22,3163.11 2944.3,3153.58 2962.23,3151.83C2995.31,3148.62 3025.93,3167.85 3020.92,3190.3Z" style="fill:rgb(247,163,127);"/>
                <path d="M2537.21,3203C2529.85,3235.86 2477.86,3235.8 2462.44,3212.05C2457,3203.98 2458.08,3196.41 2462.55,3188.62C2467.24,3181.04 2475.36,3172.98 2489.8,3171.72C2516.5,3169.16 2541.35,3184.8 2537.21,3203Z" style="fill:rgb(247,163,127);"/>
                <path d="M3046.53,3251.5C3067.45,3298.03 3048,3276.62 2998.14,3286.92C2950.79,3296.45 2929.75,3310.62 2935.69,3322.06C2940.43,3331.6 2931.88,3308.06 2970.79,3311.93C2971.55,3310.4 2941.96,3329.91 2943.59,3340.1C2945.83,3355.79 2957.98,3334.05 2979.94,3325.88C2971,3340.75 2975.2,3364.4 2981.63,3363.04C2985.55,3362.5 2981.9,3350.29 2990.4,3329.37C2998.25,3309.31 3027.78,3314.65 3051.98,3310.62C3139.54,3297.49 3075.35,3233.9 3062.66,3234.33L3046.53,3251.5Z" style="fill:rgb(87,59,49);"/>
                <path d="M2408.06,3245.01C2387.08,3291.55 2406.54,3270.13 2456.45,3280.43C2503.8,3289.97 2524.78,3304.14 2518.9,3315.58C2514.16,3325.11 2522.66,3301.52 2483.75,3305.44C2483.04,3303.92 2512.63,3323.42 2511,3333.62C2508.76,3349.31 2496.61,3327.57 2474.59,3319.39C2483.59,3334.27 2479.39,3357.92 2472.91,3356.56C2468.98,3356.01 2472.63,3343.8 2464.19,3322.88C2456.29,3302.83 2426.81,3308.17 2402.56,3304.08C2314.99,3291 2379.18,3227.41 2391.88,3227.85L2408.06,3245.01Z" style="fill:rgb(87,59,49);"/>
                <path d="M2320.5,2757C2345.4,2764.13 2341.58,2798.63 2317.99,2803.91C2310.03,2805.66 2303.88,2803.59 2297.99,2799.72C2292.32,2795.41 2288.62,2789.31 2288.84,2779.99C2289,2766.97 2297.72,2754.38 2320.5,2757Z" style="fill:rgb(87,59,49);"/>
                <path d="M2595.95,2701.63C2620.9,2708.83 2617.03,2743.32 2593.49,2748.55C2585.54,2750.35 2579.38,2748.28 2573.5,2744.35C2567.77,2740.1 2564.07,2734 2564.34,2724.63C2564.45,2711.66 2573.22,2699.02 2595.95,2701.63Z" style="fill:rgb(87,59,49);"/>
                <path d="M2430.84,2608.29C2455.8,2615.48 2451.93,2649.98 2428.39,2655.21C2420.43,2657.01 2414.27,2654.94 2408.39,2651.01C2402.67,2646.76 2398.96,2640.66 2399.18,2631.29C2399.34,2618.32 2408.12,2605.68 2430.84,2608.29Z" style="fill:rgb(87,59,49);"/>
                <path d="M2265.79,2517.13C2290.74,2524.27 2286.93,2558.76 2263.33,2564.05C2255.38,2565.79 2249.22,2563.72 2243.34,2559.85C2237.62,2555.54 2233.91,2549.44 2234.18,2540.12C2234.29,2527.16 2243.06,2514.51 2265.79,2517.13Z" style="fill:rgb(87,59,49);"/>
                <path d="M2536.88,2426.29C2561.78,2433.49 2557.97,2467.98 2534.37,2473.21C2526.42,2474.95 2520.26,2472.94 2514.37,2469.01C2508.71,2464.71 2505,2458.61 2505.22,2449.29C2505.33,2436.32 2514.1,2423.68 2536.88,2426.29Z" style="fill:rgb(87,59,49);"/>
                <path d="M2340.77,2319.6C2365.72,2326.79 2361.85,2361.29 2338.31,2366.52C2330.36,2368.26 2324.2,2366.25 2318.32,2362.32C2312.59,2358.02 2308.89,2351.91 2309.11,2342.6C2309.27,2329.63 2318.04,2316.99 2340.77,2319.6Z" style="fill:rgb(87,59,49);"/>
                <path d="M3155.62,2790.4C3129.68,2790.4 3123.79,2824.62 3144.99,2836.17C3152.18,2840.04 3158.67,2839.82 3165.37,2837.64C3172.07,2835.14 3177.3,2830.29 3179.65,2821.24C3183.08,2808.76 3178.18,2794.16 3155.62,2790.4Z" style="fill:rgb(87,59,49);"/>
                <path d="M2906.21,2660.98C2880.28,2660.98 2874.39,2695.2 2895.59,2706.76C2902.78,2710.63 2909.27,2710.41 2915.97,2708.28C2922.62,2705.72 2927.9,2700.87 2930.25,2691.83C2933.68,2679.35 2928.77,2664.74 2906.21,2660.98Z" style="fill:rgb(87,59,49);"/>
                <path d="M3081.4,2594.4C3055.46,2594.45 3049.58,2628.62 3070.78,2640.17C3077.97,2644.09 3084.45,2643.82 3091.21,2641.69C3097.86,2639.13 3103.09,2634.34 3105.43,2625.29C3108.92,2612.76 3104.01,2598.21 3081.4,2594.4Z" style="fill:rgb(87,59,49);"/>
                <path d="M3274.52,2575C3248.58,2575.05 3242.75,2609.22 3263.94,2620.77C3271.08,2624.69 3277.57,2624.42 3284.32,2622.3C3290.97,2619.74 3296.2,2614.94 3298.6,2605.89C3302.03,2593.36 3297.13,2578.81 3274.52,2575Z" style="fill:rgb(87,59,49);"/>
                <path d="M3039.23,2412.73C3013.29,2412.73 3007.4,2446.95 3028.6,2458.5C3035.79,2462.42 3042.28,2462.15 3048.98,2460.02C3055.63,2457.46 3060.91,2452.61 3063.26,2443.57C3066.69,2431.09 3061.79,2416.49 3039.23,2412.73Z" style="fill:rgb(87,59,49);"/>
                <path d="M3257.13,2364.45C3231.2,2364.5 3225.37,2398.67 3246.56,2410.22C3253.7,2414.14 3260.18,2413.87 3266.94,2411.75C3273.59,2409.18 3278.82,2404.39 3281.22,2395.34C3284.65,2382.81 3279.75,2368.26 3257.13,2364.45Z" style="fill:rgb(87,59,49);"/>
                <path d="M3098.78,2560.29C3106.63,2479.37 3017.59,2526.17 3034.05,2563.34C2937.44,2619.46 2894.44,2814.97 2923.05,2837.75C2926.05,2840.26 2929.86,2840.8 2934.66,2838.79C2929.86,2813.45 2924.8,2692.86 3018.36,2596.74C3026.2,2588.62 3035.85,2583.83 3046.42,2577.5C3063.64,2588.62 3095.79,2590.15 3098.78,2560.29Z" style="fill:rgb(55,36,89);"/>
                <path d="M2368.39,2563.17C2360.55,2482.25 2449.58,2529.06 2433.18,2566.23C2529.74,2622.35 2572.73,2817.86 2544.18,2840.64C2541.13,2843.15 2537.31,2843.64 2532.52,2841.62C2537.31,2816.34 2542.38,2695.75 2448.82,2599.63C2440.97,2591.51 2431.38,2586.71 2420.76,2580.39C2403.59,2591.51 2371.44,2593.03 2368.39,2563.17Z" style="fill:rgb(55,36,89);"/>
            </g>
        </g>
    </g>
</svg>
