<?xml version="1.0" encoding="UTF-8" standalone="no"?>
<!DOCTYPE svg PUBLIC "-//W3C//DTD SVG 1.1//EN" "http://www.w3.org/Graphics/SVG/1.1/DTD/svg11.dtd">
<svg width="100%" height="100%" viewBox="0 0 3577 3601" version="1.1" xmlns="http://www.w3.org/2000/svg" xmlns:xlink="http://www.w3.org/1999/xlink" xml:space="preserve" xmlns:serif="http://www.serif.com/" style="fill-rule:evenodd;clip-rule:evenodd;stroke-linejoin:round;stroke-miterlimit:2;">
    <g transform="matrix(8.33333,0,0,8.33333,-106294,-9334.2)">
        <g id="Artboard6" transform="matrix(0.189832,0,0,0.191076,10508.2,1080.82)">
            <rect x="11837.3" y="205.585" width="2261.09" height="2261.03" style="fill:none;"/>
            <g transform="matrix(5.88374,0,0,5.84543,8900.73,-5407.78)">
                <path d="M801.217,1093.68C796.875,1084.19 791.042,1075.67 783.717,1068.11C764.547,1048.33 741.22,1035.79 713.735,1030.5C707.394,1029.28 700.922,1028.59 694.321,1028.44C684.711,1028.23 674.84,1028.45 664.71,1029.11C651.786,1029.96 640.656,1032.8 631.319,1037.65C621.588,1042.71 612.143,1049.57 602.984,1058.25C598.633,1062.37 594.139,1067.91 591.425,1072.98C587.464,1080.36 583.545,1087.55 579.666,1094.56C573.604,1105.5 568.897,1116.76 565.546,1128.32C560.424,1146 561.414,1164.71 565.851,1183.07C568.574,1194.35 572.154,1204.88 576.591,1214.67C585.293,1233.91 600.785,1250.33 618.647,1261.26C624.055,1264.57 629.114,1267.23 633.824,1269.21C654.828,1278.06 677.622,1281.49 702.206,1279.49C715.669,1278.41 729.942,1274.1 742.129,1268.75C749.889,1265.36 758.058,1261.92 764.952,1256.79C780.814,1244.99 793.341,1230.5 802.533,1213.34C807.148,1204.73 810.102,1195.71 811.397,1186.27C812.908,1175.25 813.717,1164.44 813.825,1153.87C814.032,1133.22 809.557,1111.91 801.217,1093.68Z" style="fill:rgb(255,212,38);fill-rule:nonzero;"/>
                <path d="M812.407,1088.56C821.474,1108.38 826.354,1131.54 826.129,1153.99L826.129,1154C826.016,1165.08 825.171,1176.39 823.588,1187.94L823.588,1187.94C822.095,1198.83 818.699,1209.23 813.379,1219.15C803.329,1237.92 789.64,1253.76 772.298,1266.66C764.659,1272.34 755.664,1276.26 747.068,1280.02C733.681,1285.89 717.986,1290.57 703.197,1291.76C676.536,1293.92 651.825,1290.15 629.047,1280.55L629.043,1280.55C623.825,1278.35 618.213,1275.42 612.222,1271.76C592.303,1259.57 575.086,1241.2 565.382,1219.75C560.638,1209.28 556.802,1198.02 553.89,1185.96C548.942,1165.49 548.015,1144.61 553.727,1124.9C557.33,1112.46 562.385,1100.36 568.9,1088.6C572.754,1081.64 576.647,1074.49 580.579,1067.16C583.862,1061.04 589.257,1054.3 594.52,1049.32L594.521,1049.31C604.576,1039.79 614.965,1032.28 625.647,1026.73C636.354,1021.17 649.089,1017.8 663.908,1016.83C674.406,1016.15 684.636,1015.92 694.594,1016.14C701.895,1016.31 709.052,1017.07 716.065,1018.42C746.109,1024.2 771.599,1037.92 792.554,1059.55C800.864,1068.12 807.479,1077.8 812.405,1088.55L812.407,1088.56ZM801.217,1093.68C796.875,1084.19 791.042,1075.67 783.717,1068.11C764.547,1048.33 741.22,1035.79 713.735,1030.5C707.394,1029.28 700.922,1028.59 694.321,1028.44C684.711,1028.23 674.84,1028.45 664.71,1029.11C651.786,1029.96 640.656,1032.8 631.319,1037.65C621.588,1042.71 612.143,1049.57 602.984,1058.25C598.633,1062.37 594.139,1067.91 591.425,1072.98C587.464,1080.36 583.545,1087.55 579.666,1094.56C573.604,1105.5 568.897,1116.76 565.546,1128.32C560.424,1146 561.414,1164.71 565.851,1183.07C568.574,1194.35 572.154,1204.88 576.591,1214.67C585.293,1233.91 600.785,1250.33 618.647,1261.26C624.055,1264.57 629.114,1267.23 633.824,1269.21C654.828,1278.06 677.622,1281.49 702.206,1279.49C715.669,1278.41 729.942,1274.1 742.129,1268.75C749.889,1265.36 758.058,1261.92 764.952,1256.79C780.814,1244.99 793.341,1230.5 802.533,1213.34C807.148,1204.73 810.102,1195.71 811.397,1186.27C812.908,1175.25 813.717,1164.44 813.825,1153.87C814.032,1133.22 809.557,1111.91 801.217,1093.68Z" style="fill:white;"/>
                <g>
                    <path d="M693.693,968.985C699.812,985.178 704.122,1001.64 706.623,1018.37C706.712,1018.96 706.496,1019.39 705.976,1019.67C705.589,1019.88 704.998,1019.98 704.205,1019.95C696.747,1019.77 689.288,1019.63 681.83,1019.5C680.878,1019.49 679.938,1019.37 679.012,1019.15C678.327,1019 677.884,1018.33 678.003,1017.64C680.644,1002.27 684.449,986.834 689.419,971.327C689.901,969.835 690.549,968.242 691.361,966.547C691.512,966.234 691.887,966.103 692.2,966.254C692.305,966.304 692.393,966.383 692.456,966.481C692.95,967.268 693.363,968.103 693.693,968.985Z" style="fill:rgb(255,138,28);fill-rule:nonzero;"/>
                    <path d="M688.924,972.883C688.697,972.267 688.467,971.652 688.235,971.037L688.232,971.028C688.041,970.519 687.803,970.036 687.551,969.634C688.02,970.363 688.66,970.959 689.405,971.371C689.243,971.875 689.083,972.379 688.924,972.883ZM694.56,971.314C695.415,970.814 696.135,970.066 696.598,969.112C695.983,970.399 695.477,971.615 695.086,972.763C694.912,972.28 694.737,971.797 694.56,971.314Z" style="fill:white;"/>
                    <path d="M626.12,1026.32L622.673,982.162C622.6,981.313 623.23,980.566 624.079,980.494C624.609,980.449 625.125,980.68 625.444,981.105L652.723,1017.12C653.236,1017.8 653.102,1018.76 652.422,1019.27C652.291,1019.37 652.145,1019.45 651.99,1019.5L628.158,1027.65C627.352,1027.93 626.475,1027.5 626.199,1026.69C626.157,1026.58 626.13,1026.45 626.12,1026.32Z" style="fill:rgb(255,138,28);fill-rule:nonzero;"/>
                    <path d="M630.092,977.584L657.374,1013.6L658.149,1014.87L658.642,1016.24L658.795,1019.06L657.877,1021.73L657.026,1022.92L655.936,1023.93C655.936,1023.93 653.877,1025.02 653.877,1025.02L630.047,1033.17L628.6,1033.51L627.143,1033.55L624.416,1032.82L622.164,1031.11L621.304,1029.94L620.692,1028.6C620.692,1028.6 620.307,1026.78 620.307,1026.78C620.307,1026.78 616.867,982.707 616.863,982.662L616.886,981.173L617.198,979.747L618.572,977.278L620.773,975.507L622.124,974.958L623.586,974.684L625.458,974.764L627.223,975.301L628.8,976.26C628.8,976.26 630.073,977.569 630.092,977.584ZM626.12,1026.32C626.13,1026.45 626.157,1026.58 626.199,1026.69C626.475,1027.5 627.352,1027.93 628.158,1027.65L651.99,1019.5C652.145,1019.45 652.291,1019.37 652.422,1019.27C653.102,1018.76 653.236,1017.8 652.723,1017.12L625.444,981.105C625.125,980.68 624.609,980.449 624.079,980.494C623.23,980.566 622.6,981.313 622.673,982.162L626.12,1026.32Z" style="fill:white;"/>
                    <path d="M756.248,1035.61C748.279,1032.9 739.243,1029.26 730.874,1025.68C730.457,1025.51 730.262,1025.03 730.438,1024.61C730.451,1024.58 730.466,1024.54 730.483,1024.51C739.071,1009.52 747.869,995.055 758.057,981.668C758.743,980.767 759.095,980.881 759.114,982.011C759.4,998.797 758.495,1015.6 758.152,1032.96C758.139,1033.52 758.066,1034.1 757.933,1034.68C757.768,1035.38 757.07,1035.81 756.374,1035.64C756.331,1035.63 756.289,1035.62 756.248,1035.61Z" style="fill:rgb(255,138,28);fill-rule:nonzero;"/>
                    <path d="M754.374,1041.13L754.364,1041.12C746.268,1038.38 737.088,1034.67 728.629,1031.07L726.423,1029.57L725.027,1027.42L724.542,1024.93C724.542,1024.93 725.056,1022.36 725.058,1022.36C725.058,1022.36 725.41,1021.64 725.416,1021.63L725.423,1021.62C734.139,1006.4 743.077,991.723 753.417,978.136L754.936,976.574L756.393,975.721L758.656,975.238L760.635,975.531L762.413,976.458L763.967,978.19L764.643,979.748L764.944,981.913C765.231,998.769 764.326,1015.64 763.982,1033.08L763.981,1033.09C763.96,1034.04 763.841,1035 763.613,1036L762.419,1038.6L760.41,1040.45L757.853,1041.41L755.028,1041.31L754.374,1041.13ZM756.248,1035.61C756.289,1035.62 756.331,1035.63 756.374,1035.64C757.07,1035.81 757.768,1035.38 757.933,1034.68C758.066,1034.1 758.139,1033.52 758.152,1032.96C758.495,1015.6 759.4,998.797 759.114,982.011C759.095,980.881 758.743,980.767 758.057,981.668C747.869,995.055 739.071,1009.52 730.483,1024.51C730.466,1024.54 730.451,1024.58 730.438,1024.61C730.262,1025.03 730.457,1025.51 730.874,1025.68C739.243,1029.26 748.279,1032.9 756.248,1035.61Z" style="fill:white;"/>
                    <path d="M561.984,1028.16C560.321,1024.92 558.871,1021.59 557.633,1018.17C557.195,1016.96 557.592,1016.17 558.823,1015.79C559.534,1015.58 560.388,1015.59 561.384,1015.84C572.667,1018.62 583.035,1024.58 593.471,1030.49C598.448,1033.31 603.3,1036.4 608.029,1039.77C608.504,1040.11 608.619,1040.76 608.284,1041.23C608.245,1041.29 608.201,1041.34 608.153,1041.38L585.064,1063.54C584.429,1064.15 583.855,1064.1 583.341,1063.38C575.387,1052.17 568.268,1040.43 561.984,1028.16Z" style="fill:rgb(255,138,28);fill-rule:nonzero;"/>
                    <path d="M563.157,1016.31C563.148,1016.28 563.138,1016.25 563.129,1016.22C563.139,1016.25 563.149,1016.28 563.159,1016.31C563.158,1016.31 563.157,1016.31 563.157,1016.31Z" style="fill:white;"/>
                    <path d="M822.202,1021.16C823.878,1020.38 825.69,1019.74 827.639,1019.23C827.867,1019.17 828.104,1019.31 828.167,1019.54C828.169,1019.55 828.171,1019.56 828.172,1019.56C828.229,1019.82 828.181,1020.08 828.029,1020.33C821.002,1031.8 812.706,1043.89 803.14,1056.6C801.394,1058.92 799.541,1061.16 797.58,1063.31C797.302,1063.62 796.847,1063.67 796.504,1063.45C794.911,1062.42 793.406,1061.24 791.991,1059.89C788.094,1056.19 783.885,1052.07 779.366,1047.53C778.795,1046.96 778.281,1046.35 777.824,1045.71C777.496,1045.25 777.593,1044.61 778.043,1044.27C779.395,1043.27 780.817,1042.35 782.309,1041.51C795.079,1034.37 808.377,1027.59 822.202,1021.16Z" style="fill:rgb(255,138,28);fill-rule:nonzero;"/>
                    <path d="M819.739,1015.88L819.743,1015.88C821.724,1014.95 823.865,1014.19 826.109,1013.6L828.641,1013.45L830.921,1014.25L832.709,1015.83C832.709,1015.83 833.798,1018.02 833.811,1018.08L833.869,1018.36L833.91,1021.03L833.001,1023.37C825.885,1034.99 817.487,1047.23 807.801,1060.11C805.945,1062.57 803.975,1064.95 801.88,1067.25L799.981,1068.69L797.781,1069.37L795.484,1069.25C795.484,1069.25 793.381,1068.36 793.342,1068.35C791.45,1067.12 789.662,1065.72 787.977,1064.12L787.972,1064.12C784.04,1060.38 779.794,1056.22 775.243,1051.65C774.439,1050.85 773.717,1049.99 773.07,1049.08L771.975,1046.65L771.877,1044.06L772.745,1041.62C772.745,1041.62 774.541,1039.61 774.555,1039.6L774.569,1039.59C776.117,1038.44 777.745,1037.38 779.459,1036.42L779.465,1036.42C792.357,1029.21 805.782,1022.37 819.739,1015.88ZM822.202,1021.16C808.377,1027.59 795.079,1034.37 782.309,1041.51C780.817,1042.35 779.395,1043.27 778.043,1044.27C777.593,1044.61 777.496,1045.25 777.824,1045.71C778.281,1046.35 778.795,1046.96 779.366,1047.53C783.885,1052.07 788.094,1056.19 791.991,1059.89C793.406,1061.24 794.911,1062.42 796.504,1063.45C796.847,1063.67 797.302,1063.62 797.58,1063.31C799.541,1061.16 801.394,1058.92 803.14,1056.6C812.706,1043.89 821.002,1031.8 828.029,1020.33C828.181,1020.08 828.229,1019.82 828.172,1019.56C828.171,1019.56 828.169,1019.55 828.167,1019.54C828.104,1019.31 827.867,1019.17 827.639,1019.23C825.69,1019.74 823.878,1020.38 822.202,1021.16Z" style="fill:white;"/>
                    <path d="M562.936,1108.91C562.561,1109.78 562.066,1110.61 561.451,1111.39C561.09,1111.87 560.415,1111.96 559.943,1111.6C559.935,1111.59 559.926,1111.58 559.918,1111.58C547.966,1101.83 538.086,1093.27 530.278,1085.88C528.691,1084.38 527.187,1082.7 525.765,1080.84C525.465,1080.44 525.546,1079.87 525.946,1079.57C526.097,1079.46 526.281,1079.4 526.47,1079.39C529.917,1079.3 533.582,1079.39 537.467,1079.65C548.921,1080.42 560.68,1081 571.477,1084.12C572.249,1084.34 572.692,1085.15 572.467,1085.91L572.467,1085.92C571.915,1087.78 571.239,1089.64 570.439,1091.51C567.976,1097.21 565.475,1103.01 562.936,1108.91Z" style="fill:rgb(255,138,28);fill-rule:nonzero;"/>
                    <path d="M526.32,1073.56C529.936,1073.47 533.781,1073.56 537.858,1073.83C549.727,1074.63 561.905,1075.29 573.104,1078.52L575.67,1079.86L577.455,1082L578.307,1084.66L578.332,1086.11L578.298,1086.29L578.298,1086.76L578.062,1087.56L578.059,1087.57C577.442,1089.65 576.689,1091.73 575.794,1093.81L575.793,1093.82C573.33,1099.52 570.83,1105.32 568.291,1111.22C567.723,1112.54 566.977,1113.79 566.083,1114.94L564.015,1116.74L561.507,1117.59L558.863,1117.43L556.402,1116.23L556.078,1115.96L556.234,1116.1C544.15,1106.25 534.164,1097.58 526.275,1090.12C524.468,1088.41 522.752,1086.5 521.116,1084.36L519.951,1081.92L519.821,1079.34L520.67,1076.9L522.447,1074.91L524.294,1073.93C524.294,1073.93 526.296,1073.57 526.32,1073.56ZM570.203,1092.05C571.414,1092.18 572.467,1091.75 572.467,1091.75L570.335,1091.75C570.37,1091.67 570.404,1091.59 570.439,1091.51C571.239,1089.64 571.915,1087.78 572.467,1085.91C572.692,1085.15 572.249,1084.34 571.477,1084.12C560.68,1081 548.921,1080.42 537.467,1079.65C533.582,1079.39 529.917,1079.3 526.47,1079.39C526.281,1079.4 526.097,1079.46 525.946,1079.57C525.546,1079.87 525.465,1080.44 525.765,1080.84C527.187,1082.7 528.691,1084.38 530.278,1085.88C538.086,1093.27 547.966,1101.83 559.918,1111.58C559.926,1111.58 559.935,1111.59 559.943,1111.6C560.415,1111.96 561.09,1111.87 561.451,1111.39C562.066,1110.61 562.561,1109.78 562.936,1108.91C565.394,1103.2 567.816,1097.58 570.203,1092.05Z" style="fill:white;"/>
                    <path d="M818.469,1107.16C815.302,1099.9 812.648,1093.89 810.509,1089.12C809.874,1087.7 809.37,1086.11 808.995,1084.35C808.93,1084.03 809.133,1083.72 809.447,1083.66C809.467,1083.65 809.488,1083.65 809.509,1083.65C825.841,1082.2 841.402,1081.08 856.192,1080.29C856.528,1080.27 856.852,1080.33 857.163,1080.46C857.393,1080.55 857.503,1080.81 857.408,1081.05C857.385,1081.11 857.35,1081.16 857.305,1081.2C846.343,1092.04 834.479,1101.93 821.714,1110.87C821.309,1111.16 820.748,1111.07 820.457,1110.66C819.717,1109.67 819.053,1108.5 818.469,1107.16Z" style="fill:rgb(255,138,28);fill-rule:nonzero;"/>
                    <path d="M861.404,1085.35C850.21,1096.41 838.095,1106.51 825.085,1115.63L822.652,1116.71L820.087,1116.78L817.683,1115.88C817.683,1115.88 815.73,1114.08 815.776,1114.14C814.793,1112.82 813.901,1111.27 813.125,1109.49L813.124,1109.49C809.966,1102.26 807.32,1096.26 805.188,1091.5C804.397,1089.74 803.759,1087.76 803.288,1085.54L803.276,1082.97L804.211,1080.7L805.927,1078.95C805.927,1078.95 808.265,1077.95 808.284,1077.94C808.284,1077.94 808.956,1077.85 808.974,1077.84L808.992,1077.84C825.396,1076.38 841.027,1075.26 855.863,1074.47L857.698,1074.58L859.355,1075.07L861.432,1076.43L862.789,1078.45L863.273,1080.82L862.815,1083.22C862.815,1083.22 861.414,1085.32 861.404,1085.35ZM818.469,1107.16C819.053,1108.5 819.717,1109.67 820.457,1110.66C820.748,1111.07 821.309,1111.16 821.714,1110.87C834.479,1101.93 846.343,1092.04 857.305,1081.2C857.35,1081.16 857.385,1081.11 857.408,1081.05C857.503,1080.81 857.393,1080.55 857.163,1080.46C856.852,1080.33 856.528,1080.27 856.192,1080.29C841.402,1081.08 825.841,1082.2 809.509,1083.65C809.488,1083.65 809.467,1083.65 809.447,1083.66C809.133,1083.72 808.93,1084.03 808.995,1084.35C809.37,1086.11 809.874,1087.7 810.509,1089.12C812.648,1093.89 815.302,1099.9 818.469,1107.16Z" style="fill:white;"/>
                    <path d="M510.322,1148.59C522.173,1143.38 534.884,1139.25 548.455,1136.2C549.025,1136.07 549.589,1136.43 549.716,1137C549.731,1137.07 549.739,1137.14 549.741,1137.21C549.941,1146.41 549.541,1156.29 550.512,1165.75C550.573,1166.36 550.136,1166.9 549.534,1166.96C549.432,1166.98 549.328,1166.97 549.227,1166.95C539.985,1165.31 530.629,1163.1 521.158,1160.32C515.064,1158.54 509.199,1156.99 503.267,1154.45C502.829,1154.26 502.451,1154 502.134,1153.68C501.839,1153.37 501.852,1152.88 502.164,1152.59C502.215,1152.54 502.272,1152.5 502.334,1152.46C505.037,1151.03 507.7,1149.73 510.322,1148.59Z" style="fill:rgb(255,138,28);fill-rule:nonzero;"/>
                    <path d="M506.799,1150.2C506.649,1149.99 506.481,1149.79 506.296,1149.6C506.098,1149.39 505.869,1149.23 505.599,1149.11C506.227,1149.38 506.854,1149.63 507.481,1149.88C507.254,1149.99 507.026,1150.09 506.799,1150.2ZM550.144,1161.19C550.176,1161.2 550.209,1161.2 550.242,1161.21C550.209,1161.2 550.177,1161.2 550.144,1161.19C550.144,1161.19 550.144,1161.19 550.144,1161.19ZM544.692,1166.1C544.696,1166.18 544.702,1166.26 544.71,1166.34C544.702,1166.26 544.694,1166.18 544.686,1166.1C544.688,1166.1 544.69,1166.1 544.692,1166.1ZM507.779,1156.21C506.897,1156.65 506.015,1157.11 505.138,1157.57C505.51,1157.37 505.854,1157.12 506.191,1156.8C506.479,1156.53 506.727,1156.23 506.935,1155.91C507.217,1156.01 507.498,1156.11 507.779,1156.21Z" style="fill:white;"/>
                    <path d="M871.046,1155.59C856.637,1161.44 841.711,1165.52 826.267,1167.85C825.505,1167.96 825.039,1167.64 824.867,1166.88C824.626,1165.83 824.499,1164.77 824.486,1163.72C824.416,1157.04 824.343,1149.61 824.267,1141.44C824.254,1139.93 825,1139.25 826.505,1139.42C837.918,1140.68 849.397,1142.68 860.944,1145.43C866.612,1146.78 871.782,1148.71 876.454,1151.24C876.93,1151.5 877.107,1152.09 876.849,1152.57C876.762,1152.73 876.632,1152.86 876.473,1152.95C874.785,1153.93 872.976,1154.81 871.046,1155.59Z" style="fill:rgb(255,138,28);fill-rule:nonzero;"/>
                    <path d="M827.143,1133.63C838.791,1134.91 850.507,1136.95 862.292,1139.76C868.482,1141.23 874.125,1143.35 879.23,1146.11L881.308,1147.85L882.516,1150.16L882.767,1152.76L881.976,1155.35L880.855,1156.87C880.855,1156.87 879.415,1157.98 879.385,1158.01C877.476,1159.11 875.431,1160.1 873.243,1160.99L873.238,1161C858.403,1167.02 843.035,1171.22 827.132,1173.61L824.243,1173.49L822.044,1172.5L820.335,1170.81C820.335,1170.81 819.181,1168.18 819.181,1168.18C818.847,1166.71 818.673,1165.25 818.655,1163.79L818.655,1163.79C818.585,1157.1 818.512,1149.67 818.436,1141.5L818.632,1139.48L819.119,1137.97L819.852,1136.67L820.911,1135.47L822.208,1134.54L823.581,1133.94L825.141,1133.62C825.141,1133.62 827.124,1133.63 827.143,1133.63ZM871.046,1155.59C872.976,1154.81 874.785,1153.93 876.473,1152.95C876.632,1152.86 876.762,1152.73 876.849,1152.57C877.107,1152.09 876.93,1151.5 876.454,1151.24C871.782,1148.71 866.612,1146.78 860.944,1145.43C849.397,1142.68 837.918,1140.68 826.505,1139.42C825,1139.25 824.254,1139.93 824.267,1141.44C824.343,1149.61 824.416,1157.04 824.486,1163.72C824.499,1164.77 824.626,1165.83 824.867,1166.88C825.039,1167.64 825.505,1167.96 826.267,1167.85C841.711,1165.52 856.637,1161.44 871.046,1155.59Z" style="fill:white;"/>
                    <path d="M558.642,1194.2C561.708,1202.78 565.935,1211.54 568.135,1220.27C568.402,1221.33 567.992,1221.86 566.907,1221.89C558.554,1222.11 550.092,1222.32 541.523,1222.54C536.182,1222.67 531.04,1222.31 525.784,1222.13C525.395,1222.11 525.094,1221.78 525.111,1221.39C525.118,1221.24 525.177,1221.09 525.279,1220.97C527.596,1218.29 530.078,1215.78 532.725,1213.45C540.425,1206.67 548.454,1200.07 556.814,1193.67C557.331,1193.27 558.071,1193.37 558.466,1193.88C558.542,1193.98 558.601,1194.09 558.642,1194.2Z" style="fill:rgb(255,138,28);fill-rule:nonzero;"/>
                    <path d="M564.145,1192.27C567.271,1201.01 571.545,1209.94 573.787,1218.84L574.042,1220.63L573.925,1222.15L573.493,1223.58L572.673,1224.99L571.532,1226.16L570.272,1226.96L568.843,1227.48C568.843,1227.48 567.068,1227.72 567.058,1227.72C558.703,1227.93 550.239,1228.15 541.668,1228.37C536.211,1228.5 530.955,1228.14 525.557,1227.95L523.008,1227.33L520.994,1225.84L519.689,1223.7C519.689,1223.7 519.286,1221.14 519.286,1221.14L519.733,1219.03C519.733,1219.03 520.836,1217.19 520.852,1217.17L520.869,1217.15C523.359,1214.27 526.027,1211.58 528.873,1209.08C536.671,1202.2 544.802,1195.53 553.263,1189.04L555.751,1187.82L558.419,1187.65L560.967,1188.49L563.078,1190.31L564.145,1192.27ZM558.642,1194.2C558.601,1194.09 558.542,1193.98 558.466,1193.88C558.071,1193.37 557.331,1193.27 556.814,1193.67C548.454,1200.07 540.425,1206.67 532.725,1213.45C530.078,1215.78 527.596,1218.29 525.279,1220.97C525.177,1221.09 525.118,1221.24 525.111,1221.39C525.094,1221.78 525.395,1222.11 525.784,1222.13C531.04,1222.31 536.182,1222.67 541.523,1222.54C550.092,1222.32 558.554,1222.11 566.907,1221.89C567.992,1221.86 568.402,1221.33 568.135,1220.27C565.935,1211.54 561.708,1202.78 558.642,1194.2Z" style="fill:white;"/>
                    <path d="M859.563,1223.55C850.565,1223.85 841.749,1223.99 832.456,1223.43C826.191,1223.05 819.954,1223.04 813.585,1222.9C813.038,1222.89 812.605,1222.43 812.618,1221.89C812.621,1221.77 812.645,1221.65 812.69,1221.54C815.496,1214.54 818.279,1207.22 821.04,1199.6C821.63,1197.98 822.329,1196.42 823.135,1194.94C823.354,1194.55 823.831,1194.37 824.249,1194.54C825.925,1195.18 827.493,1196.03 828.953,1197.08C839.75,1204.88 850.919,1212.46 860.364,1221.91C860.623,1222.17 860.695,1222.56 860.545,1222.9C860.36,1223.32 860.033,1223.53 859.563,1223.55Z" style="fill:rgb(255,138,28);fill-rule:nonzero;"/>
                    <path d="M807.278,1219.37C810.06,1212.43 812.82,1205.17 815.558,1197.61L815.559,1197.61C816.25,1195.71 817.07,1193.89 818.021,1192.14L819.564,1190.25L821.608,1189.06L823.953,1188.64C823.953,1188.64 826.32,1189.1 826.349,1189.1C828.487,1189.92 830.488,1191 832.359,1192.35L832.367,1192.35C843.415,1200.33 854.823,1208.12 864.487,1217.79L865.696,1219.44L866.344,1221.33L866.408,1223.31L865.876,1225.26L864.915,1226.84L863.37,1228.24L861.498,1229.1L859.724,1229.38C850.558,1229.69 841.577,1229.82 832.106,1229.25L832.102,1229.25C825.911,1228.88 819.748,1228.87 813.45,1228.73L810.806,1228.13L808.674,1226.62L807.265,1224.42C807.265,1224.42 806.789,1221.75 806.789,1221.75C806.789,1221.75 807.277,1219.39 807.278,1219.37ZM859.563,1223.55C860.033,1223.53 860.36,1223.32 860.545,1222.9C860.695,1222.56 860.623,1222.17 860.364,1221.91C850.919,1212.46 839.75,1204.88 828.953,1197.08C827.493,1196.03 825.925,1195.18 824.249,1194.54C823.831,1194.37 823.354,1194.55 823.135,1194.94C822.329,1196.42 821.63,1197.98 821.04,1199.6C818.279,1207.22 815.496,1214.54 812.69,1221.54C812.645,1221.65 812.621,1221.77 812.618,1221.89C812.605,1222.43 813.038,1222.89 813.585,1222.9C819.954,1223.04 826.191,1223.05 832.456,1223.43C841.749,1223.99 850.565,1223.85 859.563,1223.55Z" style="fill:white;"/>
                    <path d="M805.282,1276.37C797.341,1272.44 789.531,1268.3 781.85,1263.96C780.612,1263.27 779.501,1262.41 778.518,1261.38C778.068,1260.91 778.064,1260.17 778.508,1259.69C784.287,1253.5 789.686,1246.71 796.265,1241.16C796.87,1240.66 797.771,1240.74 798.277,1241.34C798.329,1241.4 798.376,1241.47 798.417,1241.54C805.444,1253.73 812.775,1264.9 818.793,1277.35C819.39,1278.58 819.732,1279.79 819.821,1281C819.865,1281.56 819.451,1282.04 818.895,1282.09C818.75,1282.1 818.605,1282.08 818.469,1282.03C814.159,1280.48 809.764,1278.59 805.282,1276.37Z" style="fill:rgb(255,138,28);fill-rule:nonzero;"/>
                    <path d="M817.935,1275.6C818.771,1275.93 819.605,1276.24 820.436,1276.54C819.792,1276.31 819.109,1276.22 818.435,1276.27L818.425,1276.27C818.374,1276.28 818.324,1276.28 818.274,1276.29C818.161,1276.06 818.048,1275.83 817.935,1275.6ZM814.048,1280.33C813.993,1280.68 813.978,1281.05 814.005,1281.42C813.974,1281.01 813.857,1280.6 813.677,1280.18C813.801,1280.23 813.924,1280.28 814.048,1280.33Z" style="fill:white;"/>
                    <path d="M574.048,1285.16C571.687,1286.59 569.259,1287.64 566.764,1288.33C566.236,1288.47 565.693,1288.16 565.55,1287.63C565.51,1287.48 565.505,1287.33 565.535,1287.18C566.151,1284.07 566.992,1281.1 568.058,1278.29C571.105,1270.25 574.726,1261.59 578.922,1252.29C580.065,1249.77 581.474,1247.56 582.921,1245.3C583.234,1244.82 583.885,1244.68 584.376,1244.99C584.41,1245.02 584.442,1245.04 584.473,1245.07C591.722,1251 598.266,1256.74 604.106,1262.29C605.007,1263.14 604.963,1263.94 603.973,1264.7C594.116,1272.23 584.14,1279.05 574.048,1285.16Z" style="fill:rgb(255,138,28);fill-rule:nonzero;"/>
                    <path d="M588.167,1240.55C595.535,1246.59 602.186,1252.42 608.11,1258.05L609.339,1259.49L610.064,1260.85L610.474,1262.26L610.571,1263.85L610.301,1265.41L609.741,1266.77L608.878,1268.04C608.878,1268.04 607.518,1269.33 607.514,1269.33C597.485,1277 587.334,1283.94 577.066,1290.15C574.229,1291.86 571.308,1293.13 568.294,1293.96L565.573,1294.13L563.104,1293.29L561.135,1291.58C561.135,1291.58 559.922,1289.16 559.922,1289.16L559.688,1287.6L559.816,1286.04C560.496,1282.61 561.427,1279.33 562.605,1276.22L562.606,1276.22C565.692,1268.08 569.358,1259.3 573.609,1249.89L573.611,1249.89C574.873,1247.1 576.414,1244.65 578.014,1242.15L579.937,1240.18L582.371,1239.14L585.002,1239.1C585.002,1239.1 587.532,1240.09 587.538,1240.1C587.538,1240.1 588.117,1240.52 588.167,1240.55ZM588.167,1240.55C588.171,1240.56 588.171,1240.56 588.167,1240.55ZM574.048,1285.16C584.14,1279.05 594.116,1272.23 603.973,1264.7C604.963,1263.94 605.007,1263.14 604.106,1262.29C598.266,1256.74 591.722,1251 584.473,1245.07C584.442,1245.04 584.41,1245.02 584.376,1244.99C583.885,1244.68 583.234,1244.82 582.921,1245.3C581.474,1247.56 580.065,1249.77 578.922,1252.29C574.726,1261.59 571.105,1270.25 568.058,1278.29C566.992,1281.1 566.151,1284.07 565.535,1287.18C565.505,1287.33 565.51,1287.48 565.55,1287.63C565.693,1288.16 566.236,1288.47 566.764,1288.33C569.259,1287.64 571.687,1286.59 574.048,1285.16Z" style="fill:white;"/>
                    <path d="M731.873,1280.4L758.19,1269.76C758.869,1269.49 759.638,1269.82 759.908,1270.49C759.941,1270.57 759.965,1270.66 759.98,1270.74C762.671,1285.09 764.474,1298.59 765.388,1311.25C765.413,1311.54 765.391,1311.83 765.321,1312.12C765.258,1312.42 765.2,1312.71 765.15,1313.01C765.074,1313.41 764.685,1313.68 764.282,1313.6C764.188,1313.58 764.097,1313.55 764.017,1313.5C760.393,1311.18 756.987,1308.53 753.801,1305.55C746.965,1299.13 740.658,1292.93 734.882,1286.94C733.555,1285.56 732.343,1284.1 731.245,1282.55C730.546,1281.57 730.756,1280.85 731.873,1280.4Z" style="fill:rgb(255,138,28);fill-rule:nonzero;"/>
                    <path d="M729.688,1274.99L729.69,1274.99L756.017,1264.35L758.811,1263.84L761.483,1264.41L763.753,1265.94L765.314,1268.32C765.314,1268.32 765.724,1269.74 765.711,1269.67C768.446,1284.25 770.275,1297.97 771.198,1310.75C771.198,1310.75 770.991,1313.48 771.021,1313.35C770.977,1313.56 770.936,1313.77 770.891,1314.03L769.893,1316.51L768.123,1318.3L765.813,1319.3C765.813,1319.3 763.201,1319.33 763.193,1319.33C763.193,1319.33 760.927,1318.42 760.882,1318.41C756.955,1315.91 753.264,1313.04 749.812,1309.8C742.9,1303.32 736.524,1297.05 730.683,1290.99C729.153,1289.4 727.756,1287.71 726.49,1285.93L725.577,1284.3L725.129,1282.81L725.015,1281.29L725.281,1279.64L725.944,1278.11L726.859,1276.89L728.04,1275.87L729.688,1274.99ZM731.873,1280.4C730.756,1280.85 730.546,1281.57 731.245,1282.55C732.343,1284.1 733.555,1285.56 734.882,1286.94C740.658,1292.93 746.965,1299.13 753.801,1305.55C756.987,1308.53 760.393,1311.18 764.017,1313.5C764.097,1313.55 764.188,1313.58 764.282,1313.6C764.685,1313.68 765.074,1313.41 765.15,1313.01C765.2,1312.71 765.258,1312.42 765.321,1312.12C765.391,1311.83 765.413,1311.54 765.388,1311.25C764.474,1298.59 762.671,1285.09 759.98,1270.74C759.965,1270.66 759.941,1270.57 759.908,1270.49C759.638,1269.82 758.869,1269.49 758.19,1269.76L731.873,1280.4Z" style="fill:white;"/>
                    <path d="M642.382,1279.01C645.702,1280.35 649.009,1281.49 652.303,1282.44C652.814,1282.58 653.112,1283.11 652.969,1283.62C652.933,1283.75 652.872,1283.87 652.789,1283.97C645.128,1293.39 637.783,1302.04 630.757,1309.93C627.939,1313.1 624.971,1316.18 621.855,1319.18C621.537,1319.49 621.031,1319.48 620.724,1319.16C620.597,1319.03 620.519,1318.86 620.503,1318.67C620.376,1317.37 620.367,1316.06 620.474,1314.75C621.407,1303.35 622.835,1291.62 624.759,1279.57C625.038,1277.82 625.464,1276.13 626.035,1274.52C626.25,1273.91 626.908,1273.58 627.53,1273.76C632.702,1275.34 637.653,1277.09 642.382,1279.01Z" style="fill:rgb(255,138,28);fill-rule:nonzero;"/>
                    <path d="M620.568,1313.62C619.565,1313.77 618.598,1314.22 617.813,1314.98C618.789,1314.04 619.75,1313.09 620.697,1312.13C620.653,1312.63 620.61,1313.13 620.568,1313.62ZM647.697,1280.99C647.886,1280.76 648.075,1280.52 648.264,1280.29C648.08,1280.52 647.917,1280.76 647.777,1281.02C647.75,1281.01 647.724,1281 647.697,1280.99ZM649.764,1287.67C650.049,1287.82 650.353,1287.94 650.673,1288.04C650.348,1287.94 650.023,1287.85 649.698,1287.75C649.72,1287.72 649.742,1287.69 649.764,1287.67ZM626.328,1314.71C626.314,1314.88 626.3,1315.06 626.286,1315.23C626.208,1316.18 626.213,1317.13 626.306,1318.11C626.219,1317.23 625.9,1316.39 625.39,1315.67C625.705,1315.35 626.017,1315.03 626.328,1314.71Z" style="fill:white;"/>
                    <path d="M691.255,1340.86C689.027,1337.21 687.646,1332 686.59,1327.91C683.759,1316.88 681.122,1304.89 678.678,1291.92C678.488,1290.91 678.786,1290.2 679.573,1289.79C680.017,1289.55 680.744,1289.48 681.753,1289.59C688.151,1290.23 695.213,1290.36 702.938,1289.98C704.531,1289.9 705.185,1290.66 704.899,1292.25C702.779,1304.06 699.694,1317.21 695.644,1331.72C694.806,1334.74 693.733,1337.76 692.426,1340.78C692.284,1341.12 691.899,1341.27 691.565,1341.13C691.435,1341.08 691.327,1340.98 691.255,1340.86Z" style="fill:rgb(255,138,28);fill-rule:nonzero;"/>
                    <path d="M686.244,1343.84C683.758,1339.74 682.126,1333.95 680.943,1329.36L680.942,1329.36C678.082,1318.22 675.417,1306.1 672.948,1293L672.852,1290.37L673.382,1288.37L674.879,1286.1L676.855,1284.63L679.377,1283.82C680.166,1283.7 681.153,1283.66 682.334,1283.78C688.47,1284.4 695.243,1284.52 702.655,1284.15L704.733,1284.28L706.341,1284.74L707.752,1285.52L709.04,1286.68L710,1288.12L710.554,1289.61L710.788,1291.24C710.788,1291.24 710.638,1293.28 710.638,1293.28C708.489,1305.25 705.365,1318.59 701.263,1333.28C700.355,1336.55 699.194,1339.82 697.792,1343.06L696.336,1345.18L694.254,1346.54L691.812,1347.01L689.288,1346.5L687.547,1345.41L686.244,1343.84ZM691.255,1340.86C691.327,1340.98 691.435,1341.08 691.565,1341.13C691.899,1341.27 692.284,1341.12 692.426,1340.78C693.733,1337.76 694.806,1334.74 695.644,1331.72C699.694,1317.21 702.779,1304.06 704.899,1292.25C705.185,1290.66 704.531,1289.9 702.938,1289.98C695.213,1290.36 688.151,1290.23 681.753,1289.59C680.744,1289.48 680.017,1289.55 679.573,1289.79C678.786,1290.2 678.488,1290.91 678.678,1291.92C681.122,1304.89 683.759,1316.88 686.59,1327.91C687.646,1332 689.027,1337.21 691.255,1340.86Z" style="fill:white;"/>
                </g>
                <g transform="matrix(0.1084,-0.9941,0.9941,0.1084,-419.829,1618.32)">
                    <ellipse cx="692.312" cy="1043.22" rx="3.466" ry="4.294" style="fill:rgb(254,249,249);"/>
                </g>
                <g transform="matrix(0.1323,-0.9912,0.9912,0.1323,-586.434,1545.45)">
                    <ellipse cx="589.459" cy="1107.66" rx="4.351" ry="2.542" style="fill:rgb(254,249,249);"/>
                </g>
                <g transform="matrix(0.9812,-0.1929,0.1929,0.9812,-200.549,174.2)">
                    <ellipse cx="794.297" cy="1116.98" rx="2.933" ry="5.021" style="fill:rgb(254,249,249);"/>
                </g>
                <g transform="matrix(0.5821,-0.8131,0.8131,0.5821,-621.778,942.297)">
                    <ellipse cx="605.891" cy="1076.09" rx="4.351" ry="2.542" style="fill:rgb(254,249,249);"/>
                </g>
                <g transform="matrix(0.5821,-0.8131,0.8131,0.5821,-598.569,948.174)">
                    <ellipse cx="623.214" cy="1056.45" rx="4.351" ry="2.542" style="fill:rgb(254,249,249);"/>
                </g>
                <g transform="matrix(0.184,-0.9829,0.9829,0.184,-480.247,1730.1)">
                    <ellipse cx="801.833" cy="1154.28" rx="4.58" ry="3.542" style="fill:rgb(254,249,249);"/>
                </g>
                <g transform="matrix(0.184,-0.9829,0.9829,0.184,-659.977,1504.51)">
                    <ellipse cx="576.109" cy="1149.73" rx="4.58" ry="3.542" style="fill:rgb(254,249,249);"/>
                </g>
                <g transform="matrix(0.4086,-0.9127,0.9127,0.4086,-532.853,1282.02)">
                    <ellipse cx="722.85" cy="1052.19" rx="3.542" ry="4.58" style="fill:rgb(254,249,249);"/>
                </g>
                <g transform="matrix(0.9965,-0.0837,0.0837,0.9965,-95.8358,61.403)">
                    <ellipse cx="684.598" cy="1173.99" rx="4.694" ry="3.371"/>
                </g>
                <g transform="matrix(0.2857,-0.9583,0.9583,0.2857,-566.106,1611.68)">
                    <ellipse cx="798.065" cy="1185.59" rx="4.761" ry="3.666" style="fill:rgb(254,249,249);"/>
                </g>
                <path d="M666.065,1195.97C679.833,1211.44 702.741,1205.45 707.026,1185.15C707.356,1183.57 708.311,1182.95 709.892,1183.31L711.006,1183.56C712.593,1183.91 713.215,1184.88 712.872,1186.47C711.006,1195.08 706.775,1201.45 700.18,1205.57C690.068,1211.88 676.881,1211.77 667.293,1205.08C660.609,1200.43 656.927,1193.92 656.248,1185.56C656.102,1183.7 656.959,1182.74 658.819,1182.67L659.209,1182.66C660.536,1182.62 661.339,1183.24 661.618,1184.54C662.838,1190.2 664.32,1194.01 666.065,1195.97Z" style="fill-rule:nonzero;"/>
                <g transform="matrix(0.4368,-0.8996,0.8996,0.4368,-658.659,1393.1)">
                    <ellipse cx="783.224" cy="1222.57" rx="4.751" ry="3.732" style="fill:rgb(254,249,249);"/>
                </g>
                <g transform="matrix(0.887,-0.4617,0.4617,0.887,-499.122,419.292)">
                    <ellipse cx="607.192" cy="1229.52" rx="4.132" ry="4.97" style="fill:rgb(254,249,249);"/>
                </g>
                <g transform="matrix(0.887,-0.4617,0.4617,0.887,-483.49,404.672)">
                    <ellipse cx="585.134" cy="1190.27" rx="4.132" ry="4.97" style="fill:rgb(254,249,249);"/>
                </g>
                <g transform="matrix(0.823,-0.568,0.568,0.823,-478.406,559.891)">
                    <ellipse cx="659.249" cy="1047.64" rx="4.97" ry="4.132" style="fill:rgb(254,249,249);"/>
                </g>
                <g transform="matrix(0.4833,-0.8755,0.8755,0.4833,-709.631,1298.21)">
                    <ellipse cx="744.952" cy="1250.26" rx="5.656" ry="4.646" style="fill:rgb(254,249,249);"/>
                </g>
                <g transform="matrix(0.91,-0.4147,0.4147,0.91,-461.363,382.222)">
                    <ellipse cx="649.523" cy="1253.57" rx="5.313" ry="5.798" style="fill:rgb(254,249,249);"/>
                </g>
                <g transform="matrix(0.4955,-0.8686,0.8686,0.4955,-746.442,1237.82)">
                    <ellipse cx="692.312" cy="1261.46" rx="5.38" ry="4.837" style="fill:rgb(254,249,249);"/>
                </g>
                <g transform="matrix(0.4955,-0.8686,0.8686,0.4955,-549.182,1206.69)">
                    <ellipse cx="764.145" cy="1076.09" rx="5.38" ry="4.837" style="fill:rgb(254,249,249);"/>
                </g>
                <g>
                    <circle cx="622.972" cy="1190.27" r="17.675" style="fill:rgb(255,138,28);"/>
                    <circle cx="746.225" cy="1190.27" r="17.675" style="fill:rgb(255,138,28);"/>
                </g>
                <g>
                    <g>
                        <path d="M654.869,1146.7C654.869,1154.38 650.127,1160.96 643.414,1163.66C641.312,1164.52 639.007,1164.99 636.594,1164.99C626.489,1164.99 618.307,1156.8 618.307,1146.7C618.307,1136.61 626.489,1128.42 636.594,1128.42C645.863,1128.42 653.519,1135.33 654.702,1144.28C654.809,1145.07 654.869,1145.88 654.869,1146.7Z" style="fill:white;fill-rule:nonzero;"/>
                        <path d="M654.869,1146.7C654.869,1154.38 650.127,1160.96 643.414,1163.66C638.887,1162.13 635.626,1157.86 635.626,1152.81C635.626,1146.49 640.75,1141.36 647.081,1141.36C650.019,1141.36 652.683,1142.46 654.701,1144.28C654.809,1145.07 654.869,1145.88 654.869,1146.7Z" style="fill-rule:nonzero;"/>
                    </g>
                    <g>
                        <path d="M750.889,1146.7C750.889,1154.38 746.147,1160.96 739.434,1163.66C737.332,1164.52 735.027,1164.99 732.614,1164.99C722.509,1164.99 714.327,1156.8 714.327,1146.7C714.327,1136.61 722.509,1128.42 732.614,1128.42C741.883,1128.42 749.539,1135.33 750.721,1144.28C750.829,1145.07 750.889,1145.88 750.889,1146.7Z" style="fill:white;fill-rule:nonzero;"/>
                        <path d="M750.889,1146.7C750.889,1154.38 746.147,1160.96 739.434,1163.66C734.907,1162.13 731.646,1157.86 731.646,1152.81C731.646,1146.49 736.77,1141.36 743.101,1141.36C746.039,1141.36 748.703,1142.46 750.721,1144.28C750.829,1145.07 750.889,1145.88 750.889,1146.7Z" style="fill-rule:nonzero;"/>
                    </g>
                </g>
            </g>
        </g>
    </g>
</svg>
